<svg width="31" height="45" viewBox="0 0 31 45" fill="none" xmlns="http://www.w3.org/2000/svg">
<path d="M15.3622 8.62961C16.1476 8.62961 16.9154 8.4037 17.5684 7.98045C18.2215 7.55721 18.7304 6.95563 19.031 6.2518C19.3315 5.54796 19.4102 4.77348 19.257 4.0263C19.1037 3.27911 18.7255 2.59278 18.1702 2.05409C17.6148 1.51539 16.9073 1.14854 16.137 0.999917C15.3667 0.851293 14.5682 0.927572 13.8426 1.21911C13.117 1.51065 12.4968 2.00435 12.0605 2.63778C11.6241 3.27122 11.3912 4.01593 11.3912 4.77776C11.3912 5.79933 11.8096 6.77907 12.5543 7.50143C13.299 8.22379 14.3091 8.62961 15.3622 8.62961ZM15.3622 2.85183C15.7549 2.85183 16.1388 2.96478 16.4653 3.17641C16.7919 3.38803 17.0463 3.68882 17.1966 4.04074C17.3469 4.39265 17.3862 4.77989 17.3096 5.15349C17.233 5.52708 17.0439 5.87025 16.7662 6.13959C16.4885 6.40894 16.1348 6.59236 15.7496 6.66668C15.3645 6.74099 14.9652 6.70285 14.6024 6.55708C14.2396 6.41131 13.9295 6.16446 13.7114 5.84774C13.4932 5.53103 13.3767 5.15867 13.3767 4.77776C13.3767 4.26697 13.5859 3.7771 13.9583 3.41592C14.3306 3.05474 14.8357 2.85183 15.3622 2.85183Z" fill="white"/>
<path d="M15.3622 10.5555C13.5192 10.5555 11.7516 11.2657 10.4484 12.5299C9.14512 13.794 8.41296 15.5085 8.41296 17.2963C8.41296 17.5517 8.51756 17.7966 8.70373 17.9772C8.88991 18.1578 9.14242 18.2592 9.40572 18.2592C9.66901 18.2592 9.92152 18.1578 10.1077 17.9772C10.2939 17.7966 10.3985 17.5517 10.3985 17.2963C10.3985 16.0193 10.9214 14.7946 11.8523 13.8917C12.7832 12.9887 14.0458 12.4815 15.3622 12.4815C16.6787 12.4815 17.9413 12.9887 18.8722 13.8917C19.803 14.7946 20.326 16.0193 20.326 17.2963C20.326 17.5517 20.4306 17.7966 20.6168 17.9772C20.803 18.1578 21.0555 18.2592 21.3188 18.2592C21.5821 18.2592 21.8346 18.1578 22.0207 17.9772C22.2069 17.7966 22.3115 17.5517 22.3115 17.2963C22.3115 15.5085 21.5794 13.794 20.2761 12.5299C18.9729 11.2657 17.2053 10.5555 15.3622 10.5555Z" fill="white"/>
<path d="M4.26001 29.4433H1.67798L1.09204 31.037H0.588135L2.74048 25.3495H3.19751L5.34985 31.037H4.84985L4.26001 29.4433ZM1.82642 29.0331H4.10767L2.96704 25.9355L1.82642 29.0331ZM7.64282 30.7206C7.96834 30.7206 8.24048 30.6295 8.45923 30.4472C8.68058 30.2623 8.80037 30.024 8.8186 29.7324H9.26782C9.2548 29.9902 9.17407 30.2259 9.02563 30.4394C8.8772 30.6503 8.67928 30.8157 8.43188 30.9355C8.18709 31.0553 7.92407 31.1152 7.64282 31.1152C7.08813 31.1152 6.64803 30.9225 6.32251 30.537C5.99959 30.1516 5.83813 29.6334 5.83813 28.9824V28.8417C5.83813 28.4251 5.91105 28.0566 6.05688 27.7363C6.20272 27.416 6.41105 27.1686 6.68188 26.9941C6.95532 26.8196 7.27433 26.7324 7.63892 26.7324C8.10246 26.7324 8.48397 26.8704 8.78345 27.1464C9.08553 27.4225 9.24699 27.7857 9.26782 28.2363H8.8186C8.79777 27.9055 8.67798 27.6386 8.45923 27.4355C8.24308 27.2324 7.96965 27.1308 7.63892 27.1308C7.21704 27.1308 6.88892 27.2831 6.65454 27.5878C6.42277 27.8925 6.30688 28.3196 6.30688 28.8691V29.0058C6.30688 29.5449 6.42277 29.9654 6.65454 30.2675C6.88892 30.5696 7.21834 30.7206 7.64282 30.7206ZM11.7678 30.7206C12.0933 30.7206 12.3655 30.6295 12.5842 30.4472C12.8056 30.2623 12.9254 30.024 12.9436 29.7324H13.3928C13.3798 29.9902 13.2991 30.2259 13.1506 30.4394C13.0022 30.6503 12.8043 30.8157 12.5569 30.9355C12.3121 31.0553 12.0491 31.1152 11.7678 31.1152C11.2131 31.1152 10.773 30.9225 10.4475 30.537C10.1246 30.1516 9.96313 29.6334 9.96313 28.9824V28.8417C9.96313 28.4251 10.0361 28.0566 10.1819 27.7363C10.3277 27.416 10.5361 27.1686 10.8069 26.9941C11.0803 26.8196 11.3993 26.7324 11.7639 26.7324C12.2275 26.7324 12.609 26.8704 12.9084 27.1464C13.2105 27.4225 13.372 27.7857 13.3928 28.2363H12.9436C12.9228 27.9055 12.803 27.6386 12.5842 27.4355C12.3681 27.2324 12.0946 27.1308 11.7639 27.1308C11.342 27.1308 11.0139 27.2831 10.7795 27.5878C10.5478 27.8925 10.4319 28.3196 10.4319 28.8691V29.0058C10.4319 29.5449 10.5478 29.9654 10.7795 30.2675C11.0139 30.5696 11.3433 30.7206 11.7678 30.7206ZM14.0725 28.8613C14.0725 28.455 14.1506 28.0891 14.3069 27.7636C14.4657 27.4381 14.6884 27.1855 14.9749 27.0058C15.2639 26.8235 15.5907 26.7324 15.9553 26.7324C16.5178 26.7324 16.9736 26.9303 17.3225 27.3261C17.6715 27.7193 17.8459 28.2415 17.8459 28.8925V28.9902C17.8459 29.399 17.7665 29.7675 17.6077 30.0956C17.4514 30.4212 17.2301 30.6725 16.9436 30.8495C16.6571 31.0266 16.3303 31.1152 15.9631 31.1152C15.4032 31.1152 14.9475 30.9186 14.5959 30.5253C14.247 30.1295 14.0725 29.6061 14.0725 28.955V28.8613ZM14.5413 28.9902C14.5413 29.4954 14.6715 29.9107 14.9319 30.2363C15.1949 30.5592 15.5387 30.7206 15.9631 30.7206C16.385 30.7206 16.7262 30.5592 16.9866 30.2363C17.2496 29.9107 17.3811 29.4824 17.3811 28.9511V28.8613C17.3811 28.5384 17.3212 28.2428 17.2014 27.9745C17.0816 27.7063 16.9137 27.4993 16.6975 27.3535C16.4814 27.205 16.234 27.1308 15.9553 27.1308C15.5387 27.1308 15.1988 27.2949 14.9358 27.623C14.6728 27.9485 14.5413 28.3756 14.5413 28.9042V28.9902ZM21.5334 30.5019C21.2522 30.9107 20.803 31.1152 20.1858 31.1152C19.7353 31.1152 19.3928 30.985 19.1584 30.7245C18.9241 30.4615 18.8043 30.0735 18.7991 29.5605V26.8105H19.2639V29.5019C19.2639 30.3066 19.5894 30.7089 20.2405 30.7089C20.9176 30.7089 21.3459 30.429 21.5256 29.8691V26.8105H21.9944V31.037H21.5413L21.5334 30.5019ZM23.6584 26.8105L23.6741 27.5331C23.8329 27.2727 24.0308 27.0748 24.2678 26.9394C24.5048 26.8014 24.7665 26.7324 25.053 26.7324C25.5061 26.7324 25.8433 26.86 26.0647 27.1152C26.2861 27.3704 26.398 27.7532 26.4006 28.2636V31.037H25.9358V28.2597C25.9332 27.8821 25.8525 27.6009 25.6936 27.416C25.5374 27.2311 25.2861 27.1386 24.9397 27.1386C24.6506 27.1386 24.3941 27.2298 24.1702 27.412C23.9488 27.5917 23.7847 27.8352 23.678 28.1425V31.037H23.2131V26.8105H23.6584ZM28.3381 25.7285V26.8105H29.2131V27.1933H28.3381V30.0097C28.3381 30.2441 28.3798 30.4186 28.4631 30.5331C28.5491 30.6477 28.691 30.705 28.8889 30.705C28.967 30.705 29.0933 30.692 29.2678 30.666L29.2874 31.0488C29.165 31.093 28.9983 31.1152 28.7874 31.1152C28.467 31.1152 28.234 31.0227 28.0881 30.8378C27.9423 30.6503 27.8694 30.3756 27.8694 30.0136V27.1933H27.092V26.8105H27.8694V25.7285H28.3381Z" fill="white"/>
</svg>
