<svg width="21" height="46" viewBox="0 0 21 46" fill="none" xmlns="http://www.w3.org/2000/svg">
<path d="M19.92 4.77832C19.7485 4.49003 19.5028 4.24978 19.2071 4.08101C18.9113 3.91224 18.5754 3.82072 18.2323 3.81536H5.52508L4.94929 1.63906C4.89111 1.42898 4.76132 1.24419 4.58105 1.1148C4.40078 0.985401 4.18066 0.919021 3.95653 0.926468H1.97103C1.70773 0.926468 1.45522 1.02792 1.26904 1.20851C1.08286 1.3891 0.978271 1.63404 0.978271 1.88943C0.978271 2.14482 1.08286 2.38976 1.26904 2.57035C1.45522 2.75094 1.70773 2.85239 1.97103 2.85239H3.20204L5.94204 12.7324C6.00022 12.9425 6.13001 13.1273 6.31027 13.2567C6.49054 13.3861 6.71067 13.4524 6.93479 13.445H15.8696C16.0529 13.4444 16.2325 13.3947 16.3885 13.3012C16.5444 13.2077 16.6706 13.0742 16.7531 12.9154L20.0094 6.59832C20.1505 6.31137 20.2162 5.99499 20.2006 5.67742C20.185 5.35985 20.0886 5.05096 19.92 4.77832ZM15.2541 11.5191H7.68929L6.0711 5.74128H18.2323L15.2541 11.5191Z" fill="white"/>
<path d="M6.43841 18.2599C7.26083 18.2599 7.92754 17.6132 7.92754 16.8154C7.92754 16.0177 7.26083 15.371 6.43841 15.371C5.61599 15.371 4.94928 16.0177 4.94928 16.8154C4.94928 17.6132 5.61599 18.2599 6.43841 18.2599Z" fill="white"/>
<path d="M16.366 18.2599C17.1884 18.2599 17.8551 17.6132 17.8551 16.8154C17.8551 16.0177 17.1884 15.371 16.366 15.371C15.5435 15.371 14.8768 16.0177 14.8768 16.8154C14.8768 17.6132 15.5435 18.2599 16.366 18.2599Z" fill="white"/>
<path d="M7.70984 30.2266C7.64473 30.8255 7.42989 31.2839 7.06531 31.6016C6.70333 31.9193 6.22026 32.0781 5.61609 32.0781C5.19421 32.0781 4.82052 31.9727 4.495 31.7617C4.17208 31.5508 3.92208 31.2526 3.745 30.8672C3.56791 30.4792 3.47807 30.0365 3.47546 29.5391V28.8008C3.47546 28.2956 3.56401 27.8477 3.74109 27.457C3.91817 27.0664 4.17208 26.7656 4.50281 26.5547C4.83614 26.3411 5.21895 26.2344 5.65125 26.2344C6.26062 26.2344 6.74109 26.3997 7.09265 26.7305C7.44682 27.0586 7.65255 27.513 7.70984 28.0938H7.22546C7.10567 27.1276 6.58093 26.6445 5.65125 26.6445C5.13562 26.6445 4.72416 26.8372 4.41687 27.2227C4.11218 27.6081 3.95984 28.1406 3.95984 28.8203V29.5156C3.95984 30.1719 4.10828 30.6953 4.40515 31.0859C4.70463 31.4766 5.10828 31.6719 5.61609 31.6719C6.11869 31.6719 6.4976 31.5521 6.75281 31.3125C7.00802 31.0703 7.16557 30.7083 7.22546 30.2266H7.70984ZM11.4364 32C11.3895 31.8672 11.3596 31.6706 11.3466 31.4102C11.1825 31.6237 10.9729 31.7891 10.7177 31.9062C10.465 32.0208 10.1968 32.0781 9.91296 32.0781C9.50671 32.0781 9.17729 31.9648 8.92468 31.7383C8.67468 31.5117 8.54968 31.2253 8.54968 30.8789C8.54968 30.4674 8.72026 30.1419 9.0614 29.9023C9.40515 29.6628 9.88302 29.543 10.495 29.543H11.3427V29.0625C11.3427 28.7604 11.2489 28.5234 11.0614 28.3516C10.8765 28.1771 10.6057 28.0898 10.2489 28.0898C9.92338 28.0898 9.65385 28.1732 9.44031 28.3398C9.22677 28.5065 9.12 28.707 9.12 28.9414L8.65125 28.9375C8.65125 28.6016 8.8075 28.3112 9.12 28.0664C9.4325 27.819 9.81661 27.6953 10.2723 27.6953C10.7437 27.6953 11.1148 27.8138 11.3856 28.0508C11.6591 28.2852 11.7997 28.6133 11.8075 29.0352V31.0352C11.8075 31.444 11.8505 31.75 11.9364 31.9531V32H11.4364ZM9.96765 31.6641C10.2802 31.6641 10.5588 31.5885 10.8036 31.4375C11.051 31.2865 11.2307 31.0846 11.3427 30.832V29.9023H10.5067C10.0406 29.9076 9.67598 29.9935 9.41296 30.1602C9.14994 30.3242 9.01843 30.5508 9.01843 30.8398C9.01843 31.0768 9.10567 31.2734 9.28015 31.4297C9.45723 31.5859 9.6864 31.6641 9.96765 31.6641ZM15.0106 28.1719C14.9117 28.1536 14.8062 28.1445 14.6942 28.1445C14.4025 28.1445 14.1552 28.2266 13.952 28.3906C13.7515 28.5521 13.6083 28.7878 13.5223 29.0977V32H13.0575V27.7734H13.5145L13.5223 28.4453C13.7697 27.9453 14.1669 27.6953 14.7137 27.6953C14.844 27.6953 14.9468 27.7122 15.0223 27.7461L15.0106 28.1719ZM16.6747 26.6914V27.7734H17.5497V28.1562H16.6747V30.9727C16.6747 31.207 16.7163 31.3815 16.7997 31.4961C16.8856 31.6107 17.0275 31.668 17.2255 31.668C17.3036 31.668 17.4299 31.6549 17.6044 31.6289L17.6239 32.0117C17.5015 32.056 17.3348 32.0781 17.1239 32.0781C16.8036 32.0781 16.5705 31.9857 16.4247 31.8008C16.2788 31.6133 16.2059 31.3385 16.2059 30.9766V28.1562H15.4286V27.7734H16.2059V26.6914H16.6747Z" fill="white"/>
</svg>
