<svg width="51" height="52" viewBox="0 0 51 52" fill="none" xmlns="http://www.w3.org/2000/svg">
<path d="M35.4493 21.558H15.5942V17.7061H35.4493V21.558ZM26.5741 3.44462L30.2969 7.05573L21.3025 15.7802H17.5797V12.1691L26.5741 3.44462ZM31.3591 6.02536L27.6363 2.41425L29.453 0.652028C29.8402 0.276472 30.4657 0.276472 30.8528 0.652028L33.1759 2.90536C33.563 3.28092 33.563 3.88758 33.1759 4.26314L31.3591 6.02536Z" fill="white"/>
<path d="M5.44897 31.5969C5.38387 32.1959 5.16903 32.6542 4.80444 32.9719C4.44246 33.2896 3.95939 33.4485 3.35522 33.4485C2.93335 33.4485 2.55965 33.343 2.23413 33.1321C1.91121 32.9211 1.66121 32.623 1.48413 32.2375C1.30705 31.8495 1.2172 31.4068 1.2146 30.9094V30.1711C1.2146 29.6659 1.30314 29.218 1.48022 28.8274C1.65731 28.4368 1.91121 28.136 2.24194 27.925C2.57528 27.7115 2.95809 27.6047 3.39038 27.6047C3.99976 27.6047 4.48022 27.7701 4.83179 28.1008C5.18595 28.429 5.39168 28.8834 5.44897 29.4641H4.9646C4.84481 28.498 4.32007 28.0149 3.39038 28.0149C2.87476 28.0149 2.4633 28.2076 2.15601 28.593C1.85132 28.9784 1.69897 29.511 1.69897 30.1907V30.886C1.69897 31.5422 1.84741 32.0657 2.14429 32.4563C2.44377 32.8469 2.84741 33.0422 3.35522 33.0422C3.85783 33.0422 4.23674 32.9224 4.49194 32.6829C4.74715 32.4407 4.9047 32.0787 4.9646 31.5969H5.44897ZM9.22632 32.8352C8.94507 33.2441 8.49585 33.4485 7.87866 33.4485C7.42814 33.4485 7.08569 33.3183 6.85132 33.0579C6.61694 32.7948 6.49715 32.4068 6.49194 31.8938V29.1438H6.95679V31.8352C6.95679 32.6399 7.28231 33.0422 7.93335 33.0422C8.61043 33.0422 9.03882 32.7623 9.21851 32.2024V29.1438H9.68726V33.3704H9.23413L9.22632 32.8352ZM13.4373 32.2961C13.4373 32.0644 13.3435 31.8782 13.156 31.7375C12.9711 31.5969 12.6912 31.4875 12.3162 31.4094C11.9412 31.3287 11.6495 31.2375 11.4412 31.136C11.2354 31.0318 11.0818 30.9055 10.9802 30.7571C10.8813 30.6086 10.8318 30.429 10.8318 30.218C10.8318 29.8847 10.9711 29.6099 11.2498 29.3938C11.5284 29.175 11.8852 29.0657 12.3201 29.0657C12.7914 29.0657 13.169 29.1829 13.4529 29.4172C13.7393 29.649 13.8826 29.9524 13.8826 30.3274H13.4138C13.4138 30.08 13.3097 29.8743 13.1013 29.7102C12.8956 29.5461 12.6352 29.4641 12.3201 29.4641C12.0128 29.4641 11.7654 29.5331 11.5779 29.6711C11.393 29.8066 11.3005 29.9836 11.3005 30.2024C11.3005 30.4133 11.3774 30.5774 11.531 30.6946C11.6873 30.8092 11.9698 30.9146 12.3787 31.011C12.7901 31.1073 13.0974 31.2102 13.3005 31.3196C13.5063 31.429 13.6586 31.5605 13.7576 31.7141C13.8565 31.8678 13.906 32.054 13.906 32.2727C13.906 32.6295 13.7615 32.9146 13.4724 33.1282C13.186 33.3417 12.811 33.4485 12.3474 33.4485C11.8552 33.4485 11.4555 33.33 11.1482 33.093C10.8435 32.8534 10.6912 32.5514 10.6912 32.1868H11.1599C11.1781 32.4602 11.2927 32.6737 11.5037 32.8274C11.7172 32.9784 11.9985 33.054 12.3474 33.054C12.6729 33.054 12.936 32.9823 13.1365 32.8391C13.337 32.6959 13.4373 32.5149 13.4373 32.2961ZM15.6873 28.0618V29.1438H16.5623V29.5266H15.6873V32.343C15.6873 32.5774 15.7289 32.7519 15.8123 32.8665C15.8982 32.981 16.0401 33.0383 16.238 33.0383C16.3162 33.0383 16.4425 33.0253 16.6169 32.9993L16.6365 33.3821C16.5141 33.4264 16.3474 33.4485 16.1365 33.4485C15.8162 33.4485 15.5831 33.356 15.4373 33.1711C15.2914 32.9836 15.2185 32.7089 15.2185 32.3469V29.5266H14.4412V29.1438H15.2185V28.0618H15.6873ZM17.1951 31.1946C17.1951 30.7883 17.2732 30.4224 17.4294 30.0969C17.5883 29.7714 17.811 29.5188 18.0974 29.3391C18.3865 29.1568 18.7133 29.0657 19.0779 29.0657C19.6404 29.0657 20.0961 29.2636 20.4451 29.6594C20.794 30.0527 20.9685 30.5748 20.9685 31.2258V31.3235C20.9685 31.7323 20.8891 32.1008 20.7302 32.429C20.574 32.7545 20.3526 33.0058 20.0662 33.1829C19.7797 33.3599 19.4529 33.4485 19.0857 33.4485C18.5258 33.4485 18.0701 33.2519 17.7185 32.8586C17.3695 32.4628 17.1951 31.9394 17.1951 31.2883V31.1946ZM17.6638 31.3235C17.6638 31.8287 17.794 32.2441 18.0544 32.5696C18.3175 32.8925 18.6612 33.054 19.0857 33.054C19.5076 33.054 19.8487 32.8925 20.1091 32.5696C20.3722 32.2441 20.5037 31.8157 20.5037 31.2844V31.1946C20.5037 30.8717 20.4438 30.5761 20.324 30.3079C20.2042 30.0396 20.0362 29.8326 19.8201 29.6868C19.6039 29.5383 19.3565 29.4641 19.0779 29.4641C18.6612 29.4641 18.3214 29.6282 18.0583 29.9563C17.7953 30.2818 17.6638 30.7089 17.6638 31.2375V31.3235ZM22.363 29.1438L22.3787 29.8313C22.5349 29.5761 22.7302 29.3847 22.9646 29.2571C23.199 29.1295 23.4594 29.0657 23.7458 29.0657C24.4125 29.0657 24.8357 29.3391 25.0154 29.886C25.1664 29.623 25.3682 29.4211 25.6208 29.2805C25.8735 29.1373 26.1521 29.0657 26.4568 29.0657C27.363 29.0657 27.8253 29.5605 27.8435 30.55V33.3704H27.3748V30.5852C27.3722 30.2076 27.2901 29.9277 27.1287 29.7454C26.9698 29.5631 26.7094 29.4719 26.3474 29.4719C26.0115 29.4771 25.7276 29.5865 25.4958 29.8C25.2641 30.011 25.1352 30.2688 25.1091 30.5735V33.3704H24.6404V30.55C24.6378 30.1881 24.5518 29.9185 24.3826 29.7415C24.2159 29.5618 23.9581 29.4719 23.6091 29.4719C23.3149 29.4719 23.0623 29.5566 22.8513 29.7258C22.6404 29.8925 22.4841 30.1412 22.3826 30.4719V33.3704H21.9138V29.1438H22.363ZM35.2888 30.8352C35.2888 31.3586 35.1977 31.8183 35.0154 32.2141C34.8357 32.6099 34.5779 32.9146 34.2419 33.1282C33.906 33.3417 33.518 33.4485 33.0779 33.4485C32.4138 33.4485 31.8774 33.2115 31.4685 32.7375C31.0597 32.261 30.8552 31.6191 30.8552 30.8118V30.2258C30.8552 29.7076 30.9464 29.2493 31.1287 28.8508C31.3136 28.4498 31.574 28.1425 31.9099 27.929C32.2458 27.7128 32.6326 27.6047 33.0701 27.6047C33.5076 27.6047 33.893 27.7102 34.2263 27.9211C34.5623 28.1321 34.8214 28.4303 35.0037 28.8157C35.186 29.2011 35.281 29.6477 35.2888 30.1555V30.8352ZM34.8083 30.218C34.8083 29.5331 34.6534 28.9967 34.3435 28.6086C34.0336 28.2206 33.6091 28.0266 33.0701 28.0266C32.5414 28.0266 32.1195 28.2219 31.8044 28.6125C31.4919 29.0006 31.3357 29.5435 31.3357 30.2415V30.8352C31.3357 31.5097 31.4919 32.0448 31.8044 32.4407C32.1169 32.8339 32.5414 33.0305 33.0779 33.0305C33.6222 33.0305 34.0466 32.8365 34.3513 32.4485C34.656 32.0579 34.8083 31.5149 34.8083 30.8196V30.218ZM38.3435 29.5422C38.2445 29.524 38.1391 29.5149 38.0271 29.5149C37.7354 29.5149 37.488 29.5969 37.2849 29.761C37.0844 29.9224 36.9412 30.1581 36.8552 30.468V33.3704H36.3904V29.1438H36.8474L36.8552 29.8157C37.1026 29.3157 37.4998 29.0657 38.0466 29.0657C38.1768 29.0657 38.2797 29.0826 38.3552 29.1165L38.3435 29.5422ZM38.8201 31.218C38.8201 30.5618 38.9659 30.0396 39.2576 29.6516C39.5518 29.261 39.9503 29.0657 40.4529 29.0657C41.0232 29.0657 41.4581 29.2909 41.7576 29.7415V27.3704H42.2224V33.3704H41.7849L41.7654 32.8079C41.4659 33.2349 41.0258 33.4485 40.4451 33.4485C39.9581 33.4485 39.5649 33.2532 39.2654 32.8625C38.9685 32.4693 38.8201 31.9394 38.8201 31.2727V31.218ZM39.2927 31.3C39.2927 31.8391 39.4008 32.2649 39.6169 32.5774C39.8331 32.8873 40.1378 33.0422 40.531 33.0422C41.1065 33.0422 41.5154 32.7883 41.7576 32.2805V30.2961C41.5154 29.7467 41.1091 29.4719 40.5388 29.4719C40.1456 29.4719 39.8396 29.6269 39.6208 29.9368C39.4021 30.2441 39.2927 30.6985 39.2927 31.3ZM45.0896 33.4485C44.7302 33.4485 44.4047 33.3599 44.113 33.1829C43.824 33.0058 43.5987 32.7597 43.4373 32.4446C43.2758 32.1269 43.1951 31.7714 43.1951 31.3782V31.2102C43.1951 30.804 43.2732 30.4381 43.4294 30.1125C43.5883 29.787 43.8083 29.5318 44.0896 29.3469C44.3708 29.1594 44.6755 29.0657 45.0037 29.0657C45.5167 29.0657 45.9229 29.2415 46.2224 29.593C46.5245 29.942 46.6755 30.4198 46.6755 31.0266V31.2883H43.6599V31.3782C43.6599 31.8573 43.7966 32.2571 44.0701 32.5774C44.3461 32.8951 44.6925 33.054 45.1091 33.054C45.3591 33.054 45.5792 33.0084 45.7693 32.9172C45.962 32.8261 46.1365 32.6803 46.2927 32.4797L46.5857 32.7024C46.2419 33.1998 45.7432 33.4485 45.0896 33.4485ZM45.0037 29.4641C44.6521 29.4641 44.3552 29.593 44.113 29.8508C43.8735 30.1086 43.7276 30.455 43.6755 30.8899H46.2107V30.8391C46.1977 30.4329 46.0818 30.1021 45.863 29.8469C45.6443 29.5917 45.3578 29.4641 45.0037 29.4641ZM49.5388 29.5422C49.4399 29.524 49.3344 29.5149 49.2224 29.5149C48.9307 29.5149 48.6833 29.5969 48.4802 29.761C48.2797 29.9224 48.1365 30.1581 48.0505 30.468V33.3704H47.5857V29.1438H48.0427L48.0505 29.8157C48.2979 29.3157 48.6951 29.0657 49.2419 29.0657C49.3722 29.0657 49.475 29.0826 49.5505 29.1165L49.5388 29.5422Z" fill="white"/>
</svg>
