<svg width="74" height="24" viewBox="0 0 74 24" fill="none" xmlns="http://www.w3.org/2000/svg">
<path d="M38.6172 19V6.20312H42.3965C43.7676 6.20312 44.8076 6.4873 45.5166 7.05566C46.2256 7.61816 46.5801 8.4502 46.5801 9.55176C46.5801 10.2139 46.3984 10.791 46.0352 11.2832C45.6777 11.7695 45.1855 12.1182 44.5586 12.3291C45.3027 12.4932 45.9004 12.8594 46.3516 13.4277C46.8086 13.9961 47.0371 14.6523 47.0371 15.3965C47.0371 16.5273 46.6709 17.4121 45.9385 18.0508C45.2119 18.6836 44.1982 19 42.8975 19H38.6172ZM39.6982 12.8477V18.0859H42.9414C43.8672 18.0859 44.5996 17.8516 45.1387 17.3828C45.6836 16.9082 45.9561 16.252 45.9561 15.4141C45.9561 14.623 45.6953 13.999 45.1738 13.542C44.6582 13.0791 43.9434 12.8477 43.0293 12.8477H39.6982ZM39.6982 11.9424H42.6514C43.5537 11.9248 44.251 11.7139 44.7432 11.3096C45.2412 10.8994 45.4902 10.3047 45.4902 9.52539C45.4902 8.70508 45.2324 8.10156 44.7168 7.71484C44.207 7.32227 43.4336 7.12598 42.3965 7.12598H39.6982V11.9424ZM50.5879 19H49.5332V5.5H50.5879V19ZM52.873 14.1045C52.873 13.1904 53.0488 12.3672 53.4004 11.6348C53.7578 10.9023 54.2588 10.334 54.9033 9.92969C55.5537 9.51953 56.2891 9.31445 57.1094 9.31445C58.375 9.31445 59.4004 9.75977 60.1855 10.6504C60.9707 11.5352 61.3633 12.71 61.3633 14.1748V14.3945C61.3633 15.3145 61.1846 16.1436 60.8271 16.8818C60.4756 17.6143 59.9775 18.1797 59.333 18.5781C58.6885 18.9766 57.9531 19.1758 57.127 19.1758C55.8672 19.1758 54.8418 18.7334 54.0508 17.8486C53.2656 16.958 52.873 15.7803 52.873 14.3154V14.1045ZM53.9277 14.3945C53.9277 15.5312 54.2207 16.4658 54.8066 17.1982C55.3984 17.9248 56.1719 18.2881 57.127 18.2881C58.0762 18.2881 58.8438 17.9248 59.4297 17.1982C60.0215 16.4658 60.3174 15.502 60.3174 14.3066V14.1045C60.3174 13.3779 60.1826 12.7129 59.9131 12.1094C59.6436 11.5059 59.2656 11.04 58.7793 10.7119C58.293 10.3779 57.7363 10.2109 57.1094 10.2109C56.1719 10.2109 55.4072 10.5801 54.8154 11.3184C54.2236 12.0508 53.9277 13.0117 53.9277 14.2012V14.3945ZM63.1211 14.1572C63.1211 12.6689 63.4492 11.4912 64.1055 10.624C64.7676 9.75098 65.6641 9.31445 66.7949 9.31445C68.0898 9.31445 69.0742 9.83008 69.748 10.8613L69.8008 9.49023H70.7852V18.8066C70.7852 20.0312 70.4424 21.001 69.7568 21.7158C69.0713 22.4307 68.1426 22.7881 66.9707 22.7881C66.3086 22.7881 65.6758 22.6387 65.0723 22.3398C64.4746 22.0469 64.0029 21.6543 63.6572 21.1621L64.2461 20.5293C64.9902 21.4434 65.875 21.9004 66.9004 21.9004C67.7793 21.9004 68.4648 21.6396 68.957 21.1182C69.4492 20.6025 69.7041 19.8848 69.7217 18.9648V17.7695C69.0479 18.707 68.0664 19.1758 66.7773 19.1758C65.6758 19.1758 64.791 18.7363 64.123 17.8574C63.4551 16.9785 63.1211 15.792 63.1211 14.2979V14.1572ZM64.1846 14.3418C64.1846 15.5547 64.4277 16.5127 64.9141 17.2158C65.4004 17.9131 66.0859 18.2617 66.9707 18.2617C68.2656 18.2617 69.1826 17.6816 69.7217 16.5215V12.1006C69.4756 11.4912 69.1211 11.0283 68.6582 10.7119C68.1953 10.3896 67.6387 10.2285 66.9883 10.2285C66.1035 10.2285 65.415 10.5771 64.9229 11.2744C64.4307 11.9658 64.1846 12.9883 64.1846 14.3418Z" fill="white"/>
<g clip-path="url(#clip0_5_221)">
<path d="M16 3H5C3.9 3 3 3.9 3 5V19C3 20.1 3.9 21 5 21H19C20.1 21 21 20.1 21 19V8L16 3ZM19 19H5V5H15V9H19V19ZM7 17H17V15H7V17ZM12 7H7V9H12V7ZM7 13H17V11H7V13Z" fill="white"/>
</g>
<defs>
<clipPath id="clip0_5_221">
<rect width="24" height="24" fill="white"/>
</clipPath>
</defs>
</svg>
