<svg width="121" height="22" viewBox="0 0 121 22" fill="none" xmlns="http://www.w3.org/2000/svg">
<path d="M44.6787 14.0098C44.5322 15.3574 44.0488 16.3887 43.2285 17.1035C42.4141 17.8184 41.3271 18.1758 39.9678 18.1758C39.0186 18.1758 38.1777 17.9385 37.4453 17.4639C36.7188 16.9893 36.1562 16.3184 35.7578 15.4512C35.3594 14.5781 35.1572 13.582 35.1514 12.4629V10.8018C35.1514 9.66504 35.3506 8.65723 35.749 7.77832C36.1475 6.89941 36.7188 6.22266 37.4629 5.74805C38.2129 5.26758 39.0742 5.02734 40.0469 5.02734C41.418 5.02734 42.499 5.39941 43.29 6.14355C44.0869 6.88184 44.5498 7.9043 44.6787 9.21094H43.5889C43.3193 7.03711 42.1387 5.9502 40.0469 5.9502C38.8867 5.9502 37.9609 6.38379 37.2695 7.25098C36.584 8.11816 36.2412 9.31641 36.2412 10.8457V12.4102C36.2412 13.8867 36.5752 15.0645 37.2432 15.9434C37.917 16.8223 38.8252 17.2617 39.9678 17.2617C41.0986 17.2617 41.9512 16.9922 42.5254 16.4531C43.0996 15.9082 43.4541 15.0938 43.5889 14.0098H44.6787ZM53.0635 18C52.958 17.7012 52.8906 17.2588 52.8613 16.6729C52.4922 17.1533 52.0205 17.5254 51.4463 17.7891C50.8779 18.0469 50.2744 18.1758 49.6357 18.1758C48.7217 18.1758 47.9805 17.9209 47.4121 17.4111C46.8496 16.9014 46.5684 16.2568 46.5684 15.4775C46.5684 14.5518 46.9521 13.8193 47.7197 13.2803C48.4932 12.7412 49.5684 12.4717 50.9453 12.4717H52.8525V11.3906C52.8525 10.7109 52.6416 10.1777 52.2197 9.79102C51.8037 9.39844 51.1943 9.20215 50.3916 9.20215C49.6592 9.20215 49.0527 9.38965 48.5723 9.76465C48.0918 10.1396 47.8516 10.5908 47.8516 11.1182L46.7969 11.1094C46.7969 10.3535 47.1484 9.7002 47.8516 9.14941C48.5547 8.59277 49.4189 8.31445 50.4443 8.31445C51.5049 8.31445 52.3398 8.58105 52.9492 9.11426C53.5645 9.6416 53.8809 10.3799 53.8984 11.3291V15.8291C53.8984 16.749 53.9951 17.4375 54.1885 17.8945V18H53.0635ZM49.7588 17.2441C50.4619 17.2441 51.0889 17.0742 51.6396 16.7344C52.1963 16.3945 52.6006 15.9404 52.8525 15.3721V13.2803H50.9717C49.9229 13.292 49.1025 13.4854 48.5107 13.8604C47.9189 14.2295 47.623 14.7393 47.623 15.3896C47.623 15.9229 47.8193 16.3652 48.2119 16.7168C48.6104 17.0684 49.126 17.2441 49.7588 17.2441ZM58.3457 6.05566V8.49023H60.3145V9.35156H58.3457V15.6885C58.3457 16.2158 58.4395 16.6084 58.627 16.8662C58.8203 17.124 59.1396 17.2529 59.585 17.2529C59.7607 17.2529 60.0449 17.2236 60.4375 17.165L60.4814 18.0264C60.2061 18.126 59.8311 18.1758 59.3564 18.1758C58.6357 18.1758 58.1113 17.9678 57.7832 17.5518C57.4551 17.1299 57.291 16.5117 57.291 15.6973V9.35156H55.542V8.49023H57.291V6.05566H58.3457ZM66.1768 18.1758C65.3682 18.1758 64.6357 17.9766 63.9795 17.5781C63.3291 17.1797 62.8223 16.626 62.459 15.917C62.0957 15.2021 61.9141 14.4023 61.9141 13.5176V13.1396C61.9141 12.2256 62.0898 11.4023 62.4414 10.6699C62.7988 9.9375 63.2939 9.36328 63.9268 8.94727C64.5596 8.52539 65.2451 8.31445 65.9834 8.31445C67.1377 8.31445 68.0518 8.70996 68.7256 9.50098C69.4053 10.2861 69.7451 11.3613 69.7451 12.7266V13.3154H62.96V13.5176C62.96 14.5957 63.2676 15.4951 63.8828 16.2158C64.5039 16.9307 65.2832 17.2881 66.2207 17.2881C66.7832 17.2881 67.2783 17.1855 67.7061 16.9805C68.1396 16.7754 68.5322 16.4473 68.8838 15.9961L69.543 16.4971C68.7695 17.6162 67.6475 18.1758 66.1768 18.1758ZM65.9834 9.21094C65.1924 9.21094 64.5244 9.50098 63.9795 10.0811C63.4404 10.6611 63.1123 11.4404 62.9951 12.4189H68.6992V12.3047C68.6699 11.3906 68.4092 10.6465 67.917 10.0723C67.4248 9.49805 66.7803 9.21094 65.9834 9.21094ZM71.3711 13.1572C71.3711 11.6689 71.6992 10.4912 72.3555 9.62402C73.0176 8.75098 73.9141 8.31445 75.0449 8.31445C76.3398 8.31445 77.3242 8.83008 77.998 9.86133L78.0508 8.49023H79.0352V17.8066C79.0352 19.0312 78.6924 20.001 78.0068 20.7158C77.3213 21.4307 76.3926 21.7881 75.2207 21.7881C74.5586 21.7881 73.9258 21.6387 73.3223 21.3398C72.7246 21.0469 72.2529 20.6543 71.9072 20.1621L72.4961 19.5293C73.2402 20.4434 74.125 20.9004 75.1504 20.9004C76.0293 20.9004 76.7148 20.6396 77.207 20.1182C77.6992 19.6025 77.9541 18.8848 77.9717 17.9648V16.7695C77.2979 17.707 76.3164 18.1758 75.0273 18.1758C73.9258 18.1758 73.041 17.7363 72.373 16.8574C71.7051 15.9785 71.3711 14.792 71.3711 13.2979V13.1572ZM72.4346 13.3418C72.4346 14.5547 72.6777 15.5127 73.1641 16.2158C73.6504 16.9131 74.3359 17.2617 75.2207 17.2617C76.5156 17.2617 77.4326 16.6816 77.9717 15.5215V11.1006C77.7256 10.4912 77.3711 10.0283 76.9082 9.71191C76.4453 9.38965 75.8887 9.22852 75.2383 9.22852C74.3535 9.22852 73.665 9.57715 73.1729 10.2744C72.6807 10.9658 72.4346 11.9883 72.4346 13.3418ZM81.1973 13.1045C81.1973 12.1904 81.373 11.3672 81.7246 10.6348C82.082 9.90234 82.583 9.33398 83.2275 8.92969C83.8779 8.51953 84.6133 8.31445 85.4336 8.31445C86.6992 8.31445 87.7246 8.75977 88.5098 9.65039C89.2949 10.5352 89.6875 11.71 89.6875 13.1748V13.3945C89.6875 14.3145 89.5088 15.1436 89.1514 15.8818C88.7998 16.6143 88.3018 17.1797 87.6572 17.5781C87.0127 17.9766 86.2773 18.1758 85.4512 18.1758C84.1914 18.1758 83.166 17.7334 82.375 16.8486C81.5898 15.958 81.1973 14.7803 81.1973 13.3154V13.1045ZM82.252 13.3945C82.252 14.5312 82.5449 15.4658 83.1309 16.1982C83.7227 16.9248 84.4961 17.2881 85.4512 17.2881C86.4004 17.2881 87.168 16.9248 87.7539 16.1982C88.3457 15.4658 88.6416 14.502 88.6416 13.3066V13.1045C88.6416 12.3779 88.5068 11.7129 88.2373 11.1094C87.9678 10.5059 87.5898 10.04 87.1035 9.71191C86.6172 9.37793 86.0605 9.21094 85.4336 9.21094C84.4961 9.21094 83.7314 9.58008 83.1396 10.3184C82.5479 11.0508 82.252 12.0117 82.252 13.2012V13.3945ZM96.2617 9.38672C96.0391 9.3457 95.8018 9.3252 95.5498 9.3252C94.8936 9.3252 94.3369 9.50977 93.8799 9.87891C93.4287 10.2422 93.1064 10.7725 92.9131 11.4697V18H91.8672V8.49023H92.8955L92.9131 10.002C93.4697 8.87695 94.3633 8.31445 95.5938 8.31445C95.8867 8.31445 96.1182 8.35254 96.2881 8.42871L96.2617 9.38672ZM99.1094 18H98.0547V8.49023H99.1094V18ZM97.8701 5.73926C97.8701 5.54004 97.9346 5.37305 98.0635 5.23828C98.1924 5.09766 98.3682 5.02734 98.5908 5.02734C98.8135 5.02734 98.9893 5.09766 99.1182 5.23828C99.2529 5.37305 99.3203 5.54004 99.3203 5.73926C99.3203 5.93848 99.2529 6.10547 99.1182 6.24023C98.9893 6.375 98.8135 6.44238 98.5908 6.44238C98.3682 6.44238 98.1924 6.375 98.0635 6.24023C97.9346 6.10547 97.8701 5.93848 97.8701 5.73926ZM105.657 18.1758C104.849 18.1758 104.116 17.9766 103.46 17.5781C102.81 17.1797 102.303 16.626 101.939 15.917C101.576 15.2021 101.395 14.4023 101.395 13.5176V13.1396C101.395 12.2256 101.57 11.4023 101.922 10.6699C102.279 9.9375 102.774 9.36328 103.407 8.94727C104.04 8.52539 104.726 8.31445 105.464 8.31445C106.618 8.31445 107.532 8.70996 108.206 9.50098C108.886 10.2861 109.226 11.3613 109.226 12.7266V13.3154H102.44V13.5176C102.44 14.5957 102.748 15.4951 103.363 16.2158C103.984 16.9307 104.764 17.2881 105.701 17.2881C106.264 17.2881 106.759 17.1855 107.187 16.9805C107.62 16.7754 108.013 16.4473 108.364 15.9961L109.023 16.4971C108.25 17.6162 107.128 18.1758 105.657 18.1758ZM105.464 9.21094C104.673 9.21094 104.005 9.50098 103.46 10.0811C102.921 10.6611 102.593 11.4404 102.476 12.4189H108.18V12.3047C108.15 11.3906 107.89 10.6465 107.397 10.0723C106.905 9.49805 106.261 9.21094 105.464 9.21094ZM116.969 15.583C116.969 15.0615 116.758 14.6426 116.336 14.3262C115.92 14.0098 115.29 13.7637 114.446 13.5879C113.603 13.4062 112.946 13.2012 112.478 12.9727C112.015 12.7383 111.669 12.4541 111.44 12.1201C111.218 11.7861 111.106 11.3818 111.106 10.9072C111.106 10.1572 111.42 9.53906 112.047 9.05273C112.674 8.56055 113.477 8.31445 114.455 8.31445C115.516 8.31445 116.365 8.57812 117.004 9.10547C117.648 9.62695 117.971 10.3096 117.971 11.1533H116.916C116.916 10.5967 116.682 10.1338 116.213 9.76465C115.75 9.39551 115.164 9.21094 114.455 9.21094C113.764 9.21094 113.207 9.36621 112.785 9.67676C112.369 9.98145 112.161 10.3799 112.161 10.8721C112.161 11.3467 112.334 11.7158 112.68 11.9795C113.031 12.2373 113.667 12.4746 114.587 12.6914C115.513 12.9082 116.204 13.1396 116.661 13.3857C117.124 13.6318 117.467 13.9277 117.689 14.2734C117.912 14.6191 118.023 15.0381 118.023 15.5303C118.023 16.333 117.698 16.9746 117.048 17.4551C116.403 17.9355 115.56 18.1758 114.517 18.1758C113.409 18.1758 112.51 17.9092 111.818 17.376C111.133 16.8369 110.79 16.1572 110.79 15.3369H111.845C111.886 15.9521 112.144 16.4326 112.618 16.7783C113.099 17.1182 113.731 17.2881 114.517 17.2881C115.249 17.2881 115.841 17.127 116.292 16.8047C116.743 16.4824 116.969 16.0752 116.969 15.583Z" fill="white"/>
<path d="M9 0L3.5 9H14.5L9 0ZM9 3.84L10.93 7H7.06L9 3.84ZM14.5 11C12.01 11 10 13.01 10 15.5C10 17.99 12.01 20 14.5 20C16.99 20 19 17.99 19 15.5C19 13.01 16.99 11 14.5 11ZM14.5 18C13.12 18 12 16.88 12 15.5C12 14.12 13.12 13 14.5 13C15.88 13 17 14.12 17 15.5C17 16.88 15.88 18 14.5 18ZM0 19.5H8V11.5H0V19.5ZM2 13.5H6V17.5H2V13.5Z" fill="white"/>
</svg>
