<svg width="146" height="23" viewBox="0 0 146 23" fill="none" xmlns="http://www.w3.org/2000/svg">
<path d="M45.6787 13.0098C45.5322 14.3574 45.0488 15.3887 44.2285 16.1035C43.4141 16.8184 42.3271 17.1758 40.9678 17.1758C40.0186 17.1758 39.1777 16.9385 38.4453 16.4639C37.7188 15.9893 37.1562 15.3184 36.7578 14.4512C36.3594 13.5781 36.1572 12.582 36.1514 11.4629V9.80176C36.1514 8.66504 36.3506 7.65723 36.749 6.77832C37.1475 5.89941 37.7188 5.22266 38.4629 4.74805C39.2129 4.26758 40.0742 4.02734 41.0469 4.02734C42.418 4.02734 43.499 4.39941 44.29 5.14355C45.0869 5.88184 45.5498 6.9043 45.6787 8.21094H44.5889C44.3193 6.03711 43.1387 4.9502 41.0469 4.9502C39.8867 4.9502 38.9609 5.38379 38.2695 6.25098C37.584 7.11816 37.2412 8.31641 37.2412 9.8457V11.4102C37.2412 12.8867 37.5752 14.0645 38.2432 14.9434C38.917 15.8223 39.8252 16.2617 40.9678 16.2617C42.0986 16.2617 42.9512 15.9922 43.5254 15.4531C44.0996 14.9082 44.4541 14.0938 44.5889 13.0098H45.6787ZM54.1777 15.7959C53.5449 16.7158 52.5342 17.1758 51.1455 17.1758C50.1318 17.1758 49.3613 16.8828 48.834 16.2969C48.3066 15.7051 48.0371 14.832 48.0254 13.6777V7.49023H49.0713V13.5459C49.0713 15.3564 49.8037 16.2617 51.2686 16.2617C52.792 16.2617 53.7559 15.6318 54.1602 14.3721V7.49023H55.2148V17H54.1953L54.1777 15.7959ZM63.6523 14.583C63.6523 14.0615 63.4414 13.6426 63.0195 13.3262C62.6035 13.0098 61.9736 12.7637 61.1299 12.5879C60.2861 12.4062 59.6299 12.2012 59.1611 11.9727C58.6982 11.7383 58.3525 11.4541 58.124 11.1201C57.9014 10.7861 57.79 10.3818 57.79 9.90723C57.79 9.15723 58.1035 8.53906 58.7305 8.05273C59.3574 7.56055 60.1602 7.31445 61.1387 7.31445C62.1992 7.31445 63.0488 7.57812 63.6875 8.10547C64.332 8.62695 64.6543 9.30957 64.6543 10.1533H63.5996C63.5996 9.59668 63.3652 9.13379 62.8965 8.76465C62.4336 8.39551 61.8477 8.21094 61.1387 8.21094C60.4473 8.21094 59.8906 8.36621 59.4688 8.67676C59.0527 8.98145 58.8447 9.37988 58.8447 9.87207C58.8447 10.3467 59.0176 10.7158 59.3633 10.9795C59.7148 11.2373 60.3506 11.4746 61.2705 11.6914C62.1963 11.9082 62.8877 12.1396 63.3447 12.3857C63.8076 12.6318 64.1504 12.9277 64.373 13.2734C64.5957 13.6191 64.707 14.0381 64.707 14.5303C64.707 15.333 64.3818 15.9746 63.7314 16.4551C63.0869 16.9355 62.2432 17.1758 61.2002 17.1758C60.0928 17.1758 59.1934 16.9092 58.502 16.376C57.8164 15.8369 57.4736 15.1572 57.4736 14.3369H58.5283C58.5693 14.9521 58.8271 15.4326 59.3018 15.7783C59.7822 16.1182 60.415 16.2881 61.2002 16.2881C61.9326 16.2881 62.5244 16.127 62.9756 15.8047C63.4268 15.4824 63.6523 15.0752 63.6523 14.583ZM68.7148 5.05566V7.49023H70.6836V8.35156H68.7148V14.6885C68.7148 15.2158 68.8086 15.6084 68.9961 15.8662C69.1895 16.124 69.5088 16.2529 69.9541 16.2529C70.1299 16.2529 70.4141 16.2236 70.8066 16.165L70.8506 17.0264C70.5752 17.126 70.2002 17.1758 69.7256 17.1758C69.0049 17.1758 68.4805 16.9678 68.1523 16.5518C67.8242 16.1299 67.6602 15.5117 67.6602 14.6973V8.35156H65.9111V7.49023H67.6602V5.05566H68.7148ZM72.1074 12.1045C72.1074 11.1904 72.2832 10.3672 72.6348 9.63477C72.9922 8.90234 73.4932 8.33398 74.1377 7.92969C74.7881 7.51953 75.5234 7.31445 76.3438 7.31445C77.6094 7.31445 78.6348 7.75977 79.4199 8.65039C80.2051 9.53516 80.5977 10.71 80.5977 12.1748V12.3945C80.5977 13.3145 80.4189 14.1436 80.0615 14.8818C79.71 15.6143 79.2119 16.1797 78.5674 16.5781C77.9229 16.9766 77.1875 17.1758 76.3613 17.1758C75.1016 17.1758 74.0762 16.7334 73.2852 15.8486C72.5 14.958 72.1074 13.7803 72.1074 12.3154V12.1045ZM73.1621 12.3945C73.1621 13.5312 73.4551 14.4658 74.041 15.1982C74.6328 15.9248 75.4062 16.2881 76.3613 16.2881C77.3105 16.2881 78.0781 15.9248 78.6641 15.1982C79.2559 14.4658 79.5518 13.502 79.5518 12.3066V12.1045C79.5518 11.3779 79.417 10.7129 79.1475 10.1094C78.8779 9.50586 78.5 9.04004 78.0137 8.71191C77.5273 8.37793 76.9707 8.21094 76.3438 8.21094C75.4062 8.21094 74.6416 8.58008 74.0498 9.31836C73.458 10.0508 73.1621 11.0117 73.1621 12.2012V12.3945ZM83.7354 7.49023L83.7705 9.03711C84.1221 8.46289 84.5615 8.03223 85.0889 7.74512C85.6162 7.45801 86.2021 7.31445 86.8467 7.31445C88.3467 7.31445 89.2988 7.92969 89.7031 9.16016C90.043 8.56836 90.4971 8.11426 91.0654 7.79785C91.6338 7.47559 92.2607 7.31445 92.9463 7.31445C94.9854 7.31445 96.0254 8.42773 96.0664 10.6543V17H95.0117V10.7334C95.0059 9.88379 94.8213 9.25391 94.458 8.84375C94.1006 8.43359 93.5146 8.22852 92.7002 8.22852C91.9443 8.24023 91.3057 8.48633 90.7842 8.9668C90.2627 9.44141 89.9727 10.0215 89.9141 10.707V17H88.8594V10.6543C88.8535 9.83984 88.6602 9.2334 88.2793 8.83496C87.9043 8.43066 87.3242 8.22852 86.5391 8.22852C85.877 8.22852 85.3086 8.41895 84.834 8.7998C84.3594 9.1748 84.0078 9.73438 83.7793 10.4785V17H82.7246V7.49023H83.7354ZM112.818 11.2959C112.818 12.4736 112.613 13.5078 112.203 14.3984C111.799 15.2891 111.219 15.9746 110.463 16.4551C109.707 16.9355 108.834 17.1758 107.844 17.1758C106.35 17.1758 105.143 16.6426 104.223 15.5762C103.303 14.5039 102.843 13.0596 102.843 11.2432V9.9248C102.843 8.75879 103.048 7.72754 103.458 6.83105C103.874 5.92871 104.46 5.2373 105.216 4.75684C105.972 4.27051 106.842 4.02734 107.826 4.02734C108.811 4.02734 109.678 4.26465 110.428 4.73926C111.184 5.21387 111.767 5.88477 112.177 6.75195C112.587 7.61914 112.801 8.62402 112.818 9.7666V11.2959ZM111.737 9.90723C111.737 8.36621 111.389 7.15918 110.691 6.28613C109.994 5.41309 109.039 4.97656 107.826 4.97656C106.637 4.97656 105.688 5.41602 104.979 6.29492C104.275 7.16797 103.924 8.38965 103.924 9.95996V11.2959C103.924 12.8135 104.275 14.0176 104.979 14.9082C105.682 15.793 106.637 16.2354 107.844 16.2354C109.068 16.2354 110.023 15.7988 110.709 14.9258C111.395 14.0469 111.737 12.8252 111.737 11.2607V9.90723ZM119.691 8.38672C119.469 8.3457 119.231 8.3252 118.979 8.3252C118.323 8.3252 117.767 8.50977 117.31 8.87891C116.858 9.24219 116.536 9.77246 116.343 10.4697V17H115.297V7.49023H116.325L116.343 9.00195C116.899 7.87695 117.793 7.31445 119.023 7.31445C119.316 7.31445 119.548 7.35254 119.718 7.42871L119.691 8.38672ZM120.764 12.1572C120.764 10.6807 121.092 9.50586 121.748 8.63281C122.41 7.75391 123.307 7.31445 124.438 7.31445C125.721 7.31445 126.699 7.82129 127.373 8.83496V3.5H128.419V17H127.435L127.391 15.7344C126.717 16.6953 125.727 17.1758 124.42 17.1758C123.324 17.1758 122.439 16.7363 121.766 15.8574C121.098 14.9727 120.764 13.7803 120.764 12.2803V12.1572ZM121.827 12.3418C121.827 13.5547 122.07 14.5127 122.557 15.2158C123.043 15.9131 123.729 16.2617 124.613 16.2617C125.908 16.2617 126.828 15.6904 127.373 14.5479V10.083C126.828 8.84668 125.914 8.22852 124.631 8.22852C123.746 8.22852 123.058 8.57715 122.565 9.27441C122.073 9.96582 121.827 10.9883 121.827 12.3418ZM134.87 17.1758C134.062 17.1758 133.329 16.9766 132.673 16.5781C132.022 16.1797 131.516 15.626 131.152 14.917C130.789 14.2021 130.607 13.4023 130.607 12.5176V12.1396C130.607 11.2256 130.783 10.4023 131.135 9.66992C131.492 8.9375 131.987 8.36328 132.62 7.94727C133.253 7.52539 133.938 7.31445 134.677 7.31445C135.831 7.31445 136.745 7.70996 137.419 8.50098C138.099 9.28613 138.438 10.3613 138.438 11.7266V12.3154H131.653V12.5176C131.653 13.5957 131.961 14.4951 132.576 15.2158C133.197 15.9307 133.977 16.2881 134.914 16.2881C135.477 16.2881 135.972 16.1855 136.399 15.9805C136.833 15.7754 137.226 15.4473 137.577 14.9961L138.236 15.4971C137.463 16.6162 136.341 17.1758 134.87 17.1758ZM134.677 8.21094C133.886 8.21094 133.218 8.50098 132.673 9.08105C132.134 9.66113 131.806 10.4404 131.688 11.4189H137.393V11.3047C137.363 10.3906 137.103 9.64648 136.61 9.07227C136.118 8.49805 135.474 8.21094 134.677 8.21094ZM144.881 8.38672C144.658 8.3457 144.421 8.3252 144.169 8.3252C143.513 8.3252 142.956 8.50977 142.499 8.87891C142.048 9.24219 141.726 9.77246 141.532 10.4697V17H140.486V7.49023H141.515L141.532 9.00195C142.089 7.87695 142.982 7.31445 144.213 7.31445C144.506 7.31445 144.737 7.35254 144.907 7.42871L144.881 8.38672Z" fill="white"/>
<path d="M20 22.0025H0V18.0025H20V22.0025ZM11.06 3.1925L14.81 6.9425L5.75 16.0025H2V12.2525L11.06 3.1925ZM15.88 5.8725L12.13 2.1225L13.96 0.2925C14.35 -0.0975 14.98 -0.0975 15.37 0.2925L17.71 2.6325C18.1 3.0225 18.1 3.6525 17.71 4.0425L15.88 5.8725Z" fill="white"/>
</svg>
