<svg width="85" height="24" viewBox="0 0 85 24" fill="none" xmlns="http://www.w3.org/2000/svg">
<g clip-path="url(#clip0_5_196)">
<path d="M12 5.69L17 10.19V18H15V12H9V18H7V10.19L12 5.69ZM12 3L2 12H5V20H11V14H13V20H19V12H22L12 3Z" fill="white"/>
</g>
<path d="M46.1006 19H45.0107V12.8652H37.6982V19H36.6172V6.20312H37.6982V11.9512H45.0107V6.20312H46.1006V19ZM48.5352 14.1045C48.5352 13.1904 48.7109 12.3672 49.0625 11.6348C49.4199 10.9023 49.9209 10.334 50.5654 9.92969C51.2158 9.51953 51.9512 9.31445 52.7715 9.31445C54.0371 9.31445 55.0625 9.75977 55.8477 10.6504C56.6328 11.5352 57.0254 12.71 57.0254 14.1748V14.3945C57.0254 15.3145 56.8467 16.1436 56.4893 16.8818C56.1377 17.6143 55.6396 18.1797 54.9951 18.5781C54.3506 18.9766 53.6152 19.1758 52.7891 19.1758C51.5293 19.1758 50.5039 18.7334 49.7129 17.8486C48.9277 16.958 48.5352 15.7803 48.5352 14.3154V14.1045ZM49.5898 14.3945C49.5898 15.5312 49.8828 16.4658 50.4688 17.1982C51.0605 17.9248 51.834 18.2881 52.7891 18.2881C53.7383 18.2881 54.5059 17.9248 55.0918 17.1982C55.6836 16.4658 55.9795 15.502 55.9795 14.3066V14.1045C55.9795 13.3779 55.8447 12.7129 55.5752 12.1094C55.3057 11.5059 54.9277 11.04 54.4414 10.7119C53.9551 10.3779 53.3984 10.2109 52.7715 10.2109C51.834 10.2109 51.0693 10.5801 50.4775 11.3184C49.8857 12.0508 49.5898 13.0117 49.5898 14.2012V14.3945ZM60.1631 9.49023L60.1982 11.0371C60.5498 10.4629 60.9893 10.0322 61.5166 9.74512C62.0439 9.45801 62.6299 9.31445 63.2744 9.31445C64.7744 9.31445 65.7266 9.92969 66.1309 11.1602C66.4707 10.5684 66.9248 10.1143 67.4932 9.79785C68.0615 9.47559 68.6885 9.31445 69.374 9.31445C71.4131 9.31445 72.4531 10.4277 72.4941 12.6543V19H71.4395V12.7334C71.4336 11.8838 71.249 11.2539 70.8857 10.8438C70.5283 10.4336 69.9424 10.2285 69.1279 10.2285C68.3721 10.2402 67.7334 10.4863 67.2119 10.9668C66.6904 11.4414 66.4004 12.0215 66.3418 12.707V19H65.2871V12.6543C65.2812 11.8398 65.0879 11.2334 64.707 10.835C64.332 10.4307 63.752 10.2285 62.9668 10.2285C62.3047 10.2285 61.7363 10.4189 61.2617 10.7998C60.7871 11.1748 60.4355 11.7344 60.207 12.4785V19H59.1523V9.49023H60.1631ZM78.8486 19.1758C78.04 19.1758 77.3076 18.9766 76.6514 18.5781C76.001 18.1797 75.4941 17.626 75.1309 16.917C74.7676 16.2021 74.5859 15.4023 74.5859 14.5176V14.1396C74.5859 13.2256 74.7617 12.4023 75.1133 11.6699C75.4707 10.9375 75.9658 10.3633 76.5986 9.94727C77.2314 9.52539 77.917 9.31445 78.6553 9.31445C79.8096 9.31445 80.7236 9.70996 81.3975 10.501C82.0771 11.2861 82.417 12.3613 82.417 13.7266V14.3154H75.6318V14.5176C75.6318 15.5957 75.9395 16.4951 76.5547 17.2158C77.1758 17.9307 77.9551 18.2881 78.8926 18.2881C79.4551 18.2881 79.9502 18.1855 80.3779 17.9805C80.8115 17.7754 81.2041 17.4473 81.5557 16.9961L82.2148 17.4971C81.4414 18.6162 80.3193 19.1758 78.8486 19.1758ZM78.6553 10.2109C77.8643 10.2109 77.1963 10.501 76.6514 11.0811C76.1123 11.6611 75.7842 12.4404 75.667 13.4189H81.3711V13.3047C81.3418 12.3906 81.0811 11.6465 80.5889 11.0723C80.0967 10.498 79.4521 10.2109 78.6553 10.2109Z" fill="white"/>
<defs>
<clipPath id="clip0_5_196">
<rect width="24" height="24" fill="white"/>
</clipPath>
</defs>
</svg>
