<svg width="18" height="19" viewBox="0 0 18 19" fill="none" xmlns="http://www.w3.org/2000/svg">
<path d="M17.9025 17.3339C17.9025 17.5793 17.802 17.8147 17.6231 17.9882C17.4442 18.1618 17.2016 18.2592 16.9486 18.2592H1.6858C1.4328 18.2592 1.19017 18.1618 1.01127 17.9882C0.832375 17.8147 0.731873 17.5793 0.731873 17.3339V7.60905C0.731772 7.46805 0.764895 7.32889 0.828711 7.2022C0.892528 7.07551 0.985349 6.96464 1.10009 6.87807L8.73148 1.12086C8.89893 0.994504 9.10503 0.925903 9.31719 0.925903C9.52934 0.925903 9.73544 0.994504 9.9029 1.12086L17.5343 6.87807C17.649 6.96464 17.7418 7.07551 17.8057 7.2022C17.8695 7.32889 17.9026 7.46805 17.9025 7.60905V17.3339V17.3339ZM15.9947 16.4086V8.0606L9.31719 3.02327L2.63972 8.0606V16.4086H15.9947Z" fill="white"/>
</svg>
