<svg width="228" height="228" viewBox="0 0 228 228" fill="none" xmlns="http://www.w3.org/2000/svg">
<g filter="url(#filter0_d_124_842)">
<path d="M24 98C24 48.2944 64.2944 8 114 8C163.706 8 204 48.2944 204 98C204 147.706 163.706 188 114 188C64.2944 188 24 147.706 24 98Z" fill="white"/>
</g>
<path d="M114 23C99.1664 23 84.6659 27.3987 72.3323 35.6398C59.9986 43.8809 50.3856 55.5943 44.7091 69.2987C39.0325 83.0032 37.5472 98.0832 40.4411 112.632C43.335 127.18 50.4781 140.544 60.967 151.033C71.456 161.522 84.8197 168.665 99.3682 171.559C113.917 174.453 128.997 172.967 142.701 167.291C156.406 161.614 168.119 152.001 176.36 139.668C184.601 127.334 189 112.834 189 98C189 88.1508 187.06 78.3981 183.291 69.2987C179.522 60.1993 173.997 51.9314 167.033 44.967C160.069 38.0026 151.801 32.4781 142.701 28.709C133.602 24.9399 123.849 23 114 23ZM114 158C102.133 158 90.5327 154.481 80.6658 147.888C70.7989 141.295 63.1085 131.925 58.5673 120.961C54.026 109.997 52.8378 97.9334 55.1529 86.2946C57.468 74.6557 63.1825 63.9647 71.5736 55.5736C79.9648 47.1824 90.6557 41.468 102.295 39.1529C113.933 36.8378 125.997 38.026 136.961 42.5672C147.925 47.1085 157.295 54.7988 163.888 64.6658C170.481 74.5327 174 86.1331 174 98C174 113.913 167.679 129.174 156.426 140.426C145.174 151.679 129.913 158 114 158Z" fill="#9C9CFF"/>
<path d="M134.25 70.9249L105.9 108.425L93.675 92.5998C92.4517 91.0284 90.6543 90.0074 88.6781 89.7612C86.7019 89.5151 84.7089 90.064 83.1375 91.2873C81.5661 92.5107 80.545 94.3081 80.2989 96.2843C80.0527 98.2604 80.6017 100.253 81.825 101.825L100.05 125.15C100.756 126.044 101.657 126.765 102.684 127.259C103.71 127.753 104.836 128.006 105.975 128C107.12 127.997 108.25 127.732 109.277 127.225C110.304 126.718 111.201 125.982 111.9 125.075L146.175 80.0749C147.388 78.4836 147.92 76.4754 147.653 74.4922C147.385 72.509 146.341 70.7132 144.75 69.4999C143.159 68.2865 141.151 67.755 139.167 68.0222C137.184 68.2894 135.388 69.3336 134.175 70.9249H134.25Z" fill="#8585DE"/>
<defs>
<filter id="filter0_d_124_842" x="0" y="0" width="228" height="228" filterUnits="userSpaceOnUse" color-interpolation-filters="sRGB">
<feFlood flood-opacity="0" result="BackgroundImageFix"/>
<feColorMatrix in="SourceAlpha" type="matrix" values="0 0 0 0 0 0 0 0 0 0 0 0 0 0 0 0 0 0 127 0" result="hardAlpha"/>
<feOffset dy="16"/>
<feGaussianBlur stdDeviation="12"/>
<feColorMatrix type="matrix" values="0 0 0 0 0 0 0 0 0 0 0 0 0 0 0 0 0 0 0.08 0"/>
<feBlend mode="normal" in2="BackgroundImageFix" result="effect1_dropShadow_124_842"/>
<feBlend mode="normal" in="SourceGraphic" in2="effect1_dropShadow_124_842" result="shape"/>
</filter>
</defs>
</svg>
