<svg width="19" height="19" viewBox="0 0 19 19" fill="none" xmlns="http://www.w3.org/2000/svg">
<path d="M17.7499 16.6075L14.3757 13.3441C15.4643 11.9988 16.0551 10.3374 16.0529 8.62713C16.0529 7.10397 15.5872 5.61502 14.7148 4.34856C13.8424 3.0821 12.6024 2.09501 11.1517 1.51213C9.70095 0.92924 8.10459 0.77673 6.56448 1.07388C5.02437 1.37104 3.6097 2.10451 2.49934 3.18154C1.38899 4.25858 0.632824 5.6308 0.326478 7.12469C0.0201317 8.61859 0.17736 10.167 0.778279 11.5743C1.3792 12.9815 2.39682 14.1842 3.70246 15.0305C5.0081 15.8767 6.54311 16.3283 8.11339 16.3283C9.87661 16.3305 11.5893 15.7575 12.9763 14.7015L16.3407 17.9745C16.4329 18.0647 16.5427 18.1363 16.6636 18.1852C16.7846 18.2341 16.9143 18.2592 17.0453 18.2592C17.1763 18.2592 17.306 18.2341 17.427 18.1852C17.5479 18.1363 17.6577 18.0647 17.7499 17.9745C17.8429 17.885 17.9168 17.7785 17.9672 17.6612C18.0175 17.5439 18.0435 17.4181 18.0435 17.291C18.0435 17.1639 18.0175 17.0381 17.9672 16.9208C17.9168 16.8035 17.8429 16.697 17.7499 16.6075V16.6075ZM2.15879 8.62713C2.15879 7.48476 2.50802 6.36805 3.16232 5.4182C3.81662 4.46836 4.7466 3.72804 5.83467 3.29088C6.92273 2.85371 8.12 2.73933 9.27508 2.96219C10.4302 3.18506 11.4912 3.73516 12.3239 4.54294C13.1567 5.35072 13.7238 6.37989 13.9536 7.5003C14.1833 8.62072 14.0654 9.78207 13.6147 10.8375C13.164 11.8929 12.4008 12.795 11.4216 13.4296C10.4424 14.0643 9.2911 14.403 8.11339 14.403C6.53413 14.403 5.01956 13.7945 3.90285 12.7113C2.78615 11.6281 2.15879 10.159 2.15879 8.62713Z" fill="white"/>
</svg>
